{
  "accessors": [
    {
      "bufferView": 2,
      "componentType": 5126,
      "count": 1008,
      "max": [
        25.09709930419922,
        135.81019592285156,
        16.332500457763672
      ],
      "min": [
        -25.88409996032715,
        37.272499084472656,
        -20.451099395751953
      ],
      "type": "VEC3"
    },
    {
      "bufferView": 2,
      "byteOffset": 12096,
      "componentType": 5126,
      "count": 1008,
      "max": [
        0.994612455368042,
        0.9978117346763611,
        0.9999314546585083
      ],
      "min": [
        -0.994611918926239,
        -0.9989171624183655,
        -0.9999807476997375
      ],
      "type": "VEC3"
    },
    {
      "bufferView": 1,
      "componentType": 5126,
      "count": 1008,
      "max": [
        0.9961000084877014,
        0.9961000084877014
      ],
      "min": [
        0.0038999998942017555,
        0.009000003337860107
      ],
      "type": "VEC2"
    },
    {
      "bufferView": 1,
      "byteOffset": 8064,
      "componentType": 5126,
      "count": 1008,
      "max": [
        0.9961000084877014,
        0.9961000084877014
      ],
      "min": [
        0.0038999998942017555,
        0.009000003337860107
      ],
      "type": "VEC2"
    },
    {
      "bufferView": 1,
      "byteOffset": 16128,
      "componentType": 5126,
      "count": 1008,
      "max": [
        0.9961000084877014,
        0.9961000084877014
      ],
      "min": [
        0.0038999998942017555,
        0.009000003337860107
      ],
      "type": "VEC2"
    },
    {
      "bufferView": 0,
      "componentType": 5125,
      "count": 4260,
      "type": "SCALAR"
    },
    {
      "bufferView": 2,
      "byteOffset": 24192,
      "componentType": 5126,
      "count": 404,
      "max": [
        13.116499900817871,
        83.9175033569336,
        14.414199829101563
      ],
      "min": [
        -13.903200149536133,
        1.263700008392334,
        -6.481200218200684
      ],
      "type": "VEC3"
    },
    {
      "bufferView": 2,
      "byteOffset": 29040,
      "componentType": 5126,
      "count": 404,
      "max": [
        0.9999326467514038,
        0.9218116998672485,
        0.9973939061164856
      ],
      "min": [
        -0.9997456669807434,
        -1.0,
        -0.9956448078155518
      ],
      "type": "VEC3"
    },
    {
      "bufferView": 1,
      "byteOffset": 24192,
      "componentType": 5126,
      "count": 404,
      "max": [
        0.9922000169754028,
        0.9937000274658203
      ],
      "min": [
        0.5081999897956848,
        0.007799983024597168
      ],
      "type": "VEC2"
    },
    {
      "bufferView": 1,
      "byteOffset": 27424,
      "componentType": 5126,
      "count": 404,
      "max": [
        0.9922000169754028,
        0.9937000274658203
      ],
      "min": [
        0.5081999897956848,
        0.007799983024597168
      ],
      "type": "VEC2"
    },
    {
      "bufferView": 1,
      "byteOffset": 30656,
      "componentType": 5126,
      "count": 404,
      "max": [
        0.9922000169754028,
        0.9937000274658203
      ],
      "min": [
        0.5081999897956848,
        0.007799983024597168
      ],
      "type": "VEC2"
    },
    {
      "bufferView": 0,
      "byteOffset": 17040,
      "componentType": 5125,
      "count": 1650,
      "type": "SCALAR"
    },
    {
      "bufferView": 2,
      "byteOffset": 33888,
      "componentType": 5126,
      "count": 142,
      "max": [
        8.363800048828125,
        151.8341064453125,
        11.23390007019043
      ],
      "min": [
        -9.120499610900879,
        133.34860229492188,
        -7.0142998695373535
      ],
      "type": "VEC3"
    },
    {
      "bufferView": 2,
      "byteOffset": 35592,
      "componentType": 5126,
      "count": 142,
      "max": [
        0.9943059086799622,
        0.8618072867393494,
        0.9985972046852112
      ],
      "min": [
        -0.9954163432121277,
        -0.9998309016227722,
        -0.9153216481208801
      ],
      "type": "VEC3"
    },
    {
      "bufferView": 1,
      "byteOffset": 33888,
      "componentType": 5126,
      "count": 142,
      "max": [
        0.9901000261306763,
        0.9900000095367432
      ],
      "min": [
        0.003700000001117587,
        0.004800021648406982
      ],
      "type": "VEC2"
    },
    {
      "bufferView": 1,
      "byteOffset": 35024,
      "componentType": 5126,
      "count": 142,
      "max": [
        0.9901000261306763,
        0.9900000095367432
      ],
      "min": [
        0.003700000001117587,
        0.004800021648406982
      ],
      "type": "VEC2"
    },
    {
      "bufferView": 1,
      "byteOffset": 36160,
      "componentType": 5126,
      "count": 142,
      "max": [
        0.9901000261306763,
        0.9900000095367432
      ],
      "min": [
        0.003700000001117587,
        0.004800021648406982
      ],
      "type": "VEC2"
    },
    {
      "bufferView": 0,
      "byteOffset": 23640,
      "componentType": 5125,
      "count": 552,
      "type": "SCALAR"
    },
    {
      "bufferView": 2,
      "byteOffset": 37296,
      "componentType": 5126,
      "count": 613,
      "max": [
        18.703399658203125,
        156.42190551757813,
        14.360699653625488
      ],
      "min": [
        -19.490100860595703,
        69.78279876708984,
        -16.466999053955078
      ],
      "type": "VEC3"
    },
    {
      "bufferView": 2,
      "byteOffset": 44652,
      "componentType": 5126,
      "count": 613,
      "max": [
        0.9975972771644592,
        1.0,
        0.9997512102127075
      ],
      "min": [
        -1.0,
        -1.0,
        -0.9999371767044067
      ],
      "type": "VEC3"
    },
    {
      "bufferView": 1,
      "byteOffset": 37296,
      "componentType": 5126,
      "count": 613,
      "max": [
        0.4966000020503998,
        0.4948999881744385
      ],
      "min": [
        0.00559999980032444,
        0.0034999847412109375
      ],
      "type": "VEC2"
    },
    {
      "bufferView": 1,
      "byteOffset": 42200,
      "componentType": 5126,
      "count": 613,
      "max": [
        0.4966000020503998,
        0.4948999881744385
      ],
      "min": [
        0.00559999980032444,
        0.0034999847412109375
      ],
      "type": "VEC2"
    },
    {
      "bufferView": 1,
      "byteOffset": 47104,
      "componentType": 5126,
      "count": 613,
      "max": [
        0.4966000020503998,
        0.4948999881744385
      ],
      "min": [
        0.00559999980032444,
        0.0034999847412109375
      ],
      "type": "VEC2"
    },
    {
      "bufferView": 0,
      "byteOffset": 25848,
      "componentType": 5125,
      "count": 2151,
      "type": "SCALAR"
    },
    {
      "bufferView": 2,
      "byteOffset": 52008,
      "componentType": 5126,
      "count": 352,
      "max": [
        47.70840072631836,
        127.34120178222656,
        9.881600379943848
      ],
      "min": [
        -48.49530029296875,
        79.58519744873047,
        -2.0660998821258545
      ],
      "type": "VEC3"
    },
    {
      "bufferView": 2,
      "byteOffset": 56232,
      "componentType": 5126,
      "count": 352,
      "max": [
        0.9994205236434937,
        0.7816880345344543,
        0.9996738433837891
      ],
      "min": [
        -0.9996111989021301,
        -0.9919838309288025,
        -0.9993950128555298
      ],
      "type": "VEC3"
    },
    {
      "bufferView": 1,
      "byteOffset": 52008,
      "componentType": 5126,
      "count": 352,
      "max": [
        0.24619999527931213,
        0.9179999828338623
      ],
      "min": [
        0.0820000022649765,
        0.5077999830245972
      ],
      "type": "VEC2"
    },
    {
      "bufferView": 1,
      "byteOffset": 54824,
      "componentType": 5126,
      "count": 352,
      "max": [
        0.24619999527931213,
        0.9179999828338623
      ],
      "min": [
        0.0820000022649765,
        0.5077999830245972
      ],
      "type": "VEC2"
    },
    {
      "bufferView": 1,
      "byteOffset": 57640,
      "componentType": 5126,
      "count": 352,
      "max": [
        0.24619999527931213,
        0.9179999828338623
      ],
      "min": [
        0.0820000022649765,
        0.5077999830245972
      ],
      "type": "VEC2"
    },
    {
      "bufferView": 0,
      "byteOffset": 34452,
      "componentType": 5125,
      "count": 1386,
      "type": "SCALAR"
    }
  ],
  "asset": {
    "extras": {
      "author": "Элона (https://sketchfab.com/Elona_4956)",
      "license": "CC-BY-4.0 (http://creativecommons.org/licenses/by/4.0/)",
      "source": "https://sketchfab.com/3d-models/asuna-yuki-7db0035d7410447a90bf2f11cb51dc2f",
      "title": "Asuna Yuki"
    },
    "generator": "Sketchfab-15.53.0",
    "version": "2.0"
  },
  "bufferViews": [
    {
      "buffer": 0,
      "byteLength": 39996,
      "name": "floatBufferViews",
      "target": 34963
    },
    {
      "buffer": 0,
      "byteLength": 60456,
      "byteOffset": 39996,
      "byteStride": 8,
      "name": "floatBufferViews",
      "target": 34962
    },
    {
      "buffer": 0,
      "byteLength": 60456,
      "byteOffset": 100452,
      "byteStride": 12,
      "name": "floatBufferViews",
      "target": 34962
    }
  ],
  "buffers": [
    {
      "byteLength": 160908,
      "uri": "scene.bin"
    }
  ],
  "extensionsRequired": [
    "KHR_materials_pbrSpecularGlossiness"
  ],
  "extensionsUsed": [
    "KHR_materials_pbrSpecularGlossiness"
  ],
  "images": [
    {
      "uri": "textures/material_diffuse.png"
    },
    {
      "uri": "textures/material_specularGlossiness.png"
    },
    {
      "uri": "textures/material_2_diffuse.png"
    }
  ],
  "materials": [
    {
      "doubleSided": true,
      "extensions": {
        "KHR_materials_pbrSpecularGlossiness": {
          "diffuseFactor": [
            1.0,
            1.0,
            1.0,
            1.0
          ],
          "diffuseTexture": {
            "index": 0
          },
          "glossinessFactor": 1.0,
          "specularFactor": [
            1.0,
            1.0,
            1.0
          ],
          "specularGlossinessTexture": {
            "index": 1
          }
        }
      },
      "name": "material"
    },
    {
      "doubleSided": true,
      "extensions": {
        "KHR_materials_pbrSpecularGlossiness": {
          "diffuseFactor": [
            1.0,
            1.0,
            1.0,
            1.0
          ],
          "diffuseTexture": {
            "index": 0
          },
          "glossinessFactor": 1.0,
          "specularFactor": [
            1.0,
            1.0,
            1.0
          ],
          "specularGlossinessTexture": {
            "index": 1
          }
        }
      },
      "name": "material_1"
    },
    {
      "doubleSided": true,
      "extensions": {
        "KHR_materials_pbrSpecularGlossiness": {
          "diffuseFactor": [
            1.0,
            1.0,
            1.0,
            1.0
          ],
          "diffuseTexture": {
            "index": 2
          },
          "glossinessFactor": 1.0,
          "specularFactor": [
            1.0,
            1.0,
            1.0
          ],
          "specularGlossinessTexture": {
            "index": 1
          }
        }
      },
      "name": "material_2"
    },
    {
      "doubleSided": true,
      "extensions": {
        "KHR_materials_pbrSpecularGlossiness": {
          "diffuseFactor": [
            1.0,
            1.0,
            1.0,
            1.0
          ],
          "diffuseTexture": {
            "index": 0
          },
          "glossinessFactor": 1.0,
          "specularFactor": [
            1.0,
            1.0,
            1.0
          ],
          "specularGlossinessTexture": {
            "index": 1
          }
        }
      },
      "name": "material_3"
    },
    {
      "doubleSided": true,
      "extensions": {
        "KHR_materials_pbrSpecularGlossiness": {
          "diffuseFactor": [
            1.0,
            1.0,
            1.0,
            1.0
          ],
          "diffuseTexture": {
            "index": 0
          },
          "glossinessFactor": 1.0,
          "specularFactor": [
            1.0,
            1.0,
            1.0
          ],
          "specularGlossinessTexture": {
            "index": 1
          }
        }
      },
      "name": "material_4"
    }
  ],
  "meshes": [
    {
      "name": "Object_0",
      "primitives": [
        {
          "attributes": {
            "NORMAL": 1,
            "POSITION": 0,
            "TEXCOORD_0": 2,
            "TEXCOORD_1": 3,
            "TEXCOORD_2": 4
          },
          "indices": 5,
          "material": 0,
          "mode": 4
        }
      ]
    },
    {
      "name": "Object_1",
      "primitives": [
        {
          "attributes": {
            "NORMAL": 7,
            "POSITION": 6,
            "TEXCOORD_0": 8,
            "TEXCOORD_1": 9,
            "TEXCOORD_2": 10
          },
          "indices": 11,
          "material": 1,
          "mode": 4
        }
      ]
    },
    {
      "name": "Object_2",
      "primitives": [
        {
          "attributes": {
            "NORMAL": 13,
            "POSITION": 12,
            "TEXCOORD_0": 14,
            "TEXCOORD_1": 15,
            "TEXCOORD_2": 16
          },
          "indices": 17,
          "material": 2,
          "mode": 4
        }
      ]
    },
    {
      "name": "Object_3",
      "primitives": [
        {
          "attributes": {
            "NORMAL": 19,
            "POSITION": 18,
            "TEXCOORD_0": 20,
            "TEXCOORD_1": 21,
            "TEXCOORD_2": 22
          },
          "indices": 23,
          "material": 3,
          "mode": 4
        }
      ]
    },
    {
      "name": "Object_4",
      "primitives": [
        {
          "attributes": {
            "NORMAL": 25,
            "POSITION": 24,
            "TEXCOORD_0": 26,
            "TEXCOORD_1": 27,
            "TEXCOORD_2": 28
          },
          "indices": 29,
          "material": 4,
          "mode": 4
        }
      ]
    }
  ],
  "nodes": [
    {
      "children": [
        1
      ],
      "matrix": [
        1.0,
        0.0,
        0.0,
        0.0,
        0.0,
        2.220446049250313e-16,
        -1.0,
        0.0,
        0.0,
        1.0,
        2.220446049250313e-16,
        0.0,
        0.0,
        0.0,
        0.0,
        1.0
      ],
      "name": "Sketchfab_model"
    },
    {
      "children": [
        2
      ],
      "name": "root"
    },
    {
      "children": [
        3
      ],
      "matrix": [
        1.0,
        0.0,
        0.0,
        0.0,
        0.0,
        2.220446049250313e-16,
        1.0,
        0.0,
        0.0,
        -1.0,
        2.220446049250313e-16,
        0.0,
        0.0,
        0.0,
        0.0,
        1.0
      ],
      "name": "GLTF_SceneRootNode"
    },
    {
      "children": [
        4
      ],
      "name": "root_0"
    },
    {
      "children": [
        5,
        8,
        11,
        14,
        17
      ],
      "matrix": [
        0.007524562068283558,
        0.0,
        0.0,
        0.0,
        0.0,
        0.007524562068283558,
        0.0,
        0.0,
        0.0,
        0.0,
        0.007524562068283558,
        0.0,
        0.1683111935853958,
        1.6252878904342651,
        -2.0662686824798584,
        1.0
      ],
      "name": "node_id19_3"
    },
    {
      "children": [
        6
      ],
      "matrix": [
        3.2998578548431396,
        0.0,
        0.0,
        0.0,
        0.0,
        3.2998578548431396,
        0.0,
        0.0,
        0.0,
        0.0,
        3.2998578548431396,
        0.0,
        1.2983157634735107,
        -260.1700439453125,
        262.7958984375,
        1.0
      ],
      "name": "node_id4_4"
    },
    {
      "children": [
        7
      ],
      "name": "node_id5_5"
    },
    {
      "mesh": 0,
      "name": "Object_7"
    },
    {
      "children": [
        9
      ],
      "matrix": [
        3.2998578548431396,
        0.0,
        0.0,
        0.0,
        0.0,
        3.2998578548431396,
        0.0,
        0.0,
        0.0,
        0.0,
        3.2998578548431396,
        0.0,
        1.2983157634735107,
        -260.1700439453125,
        262.7958984375,
        1.0
      ],
      "name": "node_id7_6"
    },
    {
      "children": [
        10
      ],
      "name": "node_id8_2"
    },
    {
      "mesh": 1,
      "name": "Object_10"
    },
    {
      "children": [
        12
      ],
      "matrix": [
        3.2998578548431396,
        0.0,
        0.0,
        0.0,
        0.0,
        3.2998578548431396,
        0.0,
        0.0,
        0.0,
        0.0,
        3.2998578548431396,
        0.0,
        1.2983157634735107,
        -260.1700439453125,
        262.7958984375,
        1.0
      ],
      "name": "node_id10_7"
    },
    {
      "children": [
        13
      ],
      "name": "node_id11_1"
    },
    {
      "mesh": 2,
      "name": "Object_13"
    },
    {
      "children": [
        15
      ],
      "matrix": [
        3.2998578548431396,
        0.0,
        0.0,
        0.0,
        0.0,
        3.2998578548431396,
        0.0,
        0.0,
        0.0,
        0.0,
        3.2998578548431396,
        0.0,
        1.2983157634735107,
        -260.1700439453125,
        262.7958984375,
        1.0
      ],
      "name": "node_id13_8"
    },
    {
      "children": [
        16
      ],
      "name": "node_id14_9"
    },
    {
      "mesh": 3,
      "name": "Object_16"
    },
    {
      "children": [
        18
      ],
      "matrix": [
        3.2998578548431396,
        0.0,
        0.0,
        0.0,
        0.0,
        3.2998578548431396,
        0.0,
        0.0,
        0.0,
        0.0,
        3.2998578548431396,
        0.0,
        1.2983157634735107,
        -260.1700439453125,
        262.7958984375,
        1.0
      ],
      "name": "node_id16_10"
    },
    {
      "children": [
        19
      ],
      "name": "node_id17_11"
    },
    {
      "mesh": 4,
      "name": "Object_19"
    }
  ],
  "samplers": [
    {
      "magFilter": 9729,
      "minFilter": 9987,
      "wrapS": 10497,
      "wrapT": 10497
    }
  ],
  "scene": 0,
  "scenes": [
    {
      "name": "Sketchfab_Scene",
      "nodes": [
        0
      ]
    }
  ],
  "textures": [
    {
      "sampler": 0,
      "source": 0
    },
    {
      "sampler": 0,
      "source": 1
    },
    {
      "sampler": 0,
      "source": 2
    }
  ]
}
